HIERARCHY
ROOT Hips
{
	OFFSET 0.000000 0.000000 0.000000
	CHANNELS 6 Xposition Yposition Zposition Zrotation Yrotation Xrotation 
	JOINT LeftUpLeg_virtual
	{
		OFFSET 0.000000 0.000000 0.000000
		CHANNELS 3 Zrotation Yrotation Xrotation
		JOINT LeftUpLeg
		{
			OFFSET 10.205400 -3.823500 0.155100
			CHANNELS 3 Zrotation Yrotation Xrotation
			JOINT LeftLeg
			{
				OFFSET 0.708757 -12.982077 0.567790
				CHANNELS 3 Zrotation Yrotation Xrotation
				JOINT LeftFoot
				{
					OFFSET -0.708756 -10.717838 -2.184338
					CHANNELS 3 Zrotation Yrotation Xrotation
					JOINT LeftToeBase
					{
						OFFSET 0.108149 -7.191104 7.560241
						CHANNELS 3 Zrotation Yrotation Xrotation
						End Site
						{
							OFFSET 0.000000 0.000000 0.000000
						}
					}
				}
			}
		}
	}
	JOINT RightUpLeg_virtual
	{
		OFFSET 0.000000 0.000000 0.000000
		CHANNELS 3 Zrotation Yrotation Xrotation
		JOINT RightUpLeg
		{
			OFFSET -10.205400 -3.823500 0.005500
			CHANNELS 3 Zrotation Yrotation Xrotation
			JOINT RightLeg
			{
				OFFSET -0.708756 -12.982134 0.610632
				CHANNELS 3 Zrotation Yrotation Xrotation
				JOINT RightFoot
				{
					OFFSET 0.708754 -10.717769 -1.945823
					CHANNELS 3 Zrotation Yrotation Xrotation
					JOINT RightToeBase
					{
						OFFSET -0.108140 -7.191069 7.372968
						CHANNELS 3 Zrotation Yrotation Xrotation
						End Site
						{
							OFFSET 0.000000 0.000000 0.000000
						}
					}
				}
			}
		}
	}
	JOINT Spine_virtual
	{
		OFFSET 0.000000 0.000000 0.000000
		CHANNELS 3 Zrotation Yrotation Xrotation
		JOINT Spine
		{
			OFFSET 0.000000 6.876099 0.125700
			CHANNELS 3 Zrotation Yrotation Xrotation
			JOINT Spine1
			{
				OFFSET 0.000000 8.022060 0.146608
				CHANNELS 3 Zrotation Yrotation Xrotation
				JOINT Spine2
				{
					OFFSET 0.000000 9.168068 0.167552
					CHANNELS 3 Zrotation Yrotation Xrotation
					JOINT Neck_virtual
					{
						OFFSET 0.000000 0.000000 0.000000
						CHANNELS 3 Zrotation Yrotation Xrotation
						JOINT Neck
						{
							OFFSET 0.000000 10.314075 0.188496
							CHANNELS 3 Zrotation Yrotation Xrotation
							JOINT Head
							{
								OFFSET 0.000000 7.643700 -2.377400
								CHANNELS 3 Zrotation Yrotation Xrotation
								End Site
								{
									OFFSET 0.000000 0.000000 0.000000
								}
							}
						}
					}
					JOINT LeftShoulder_virtual
					{
						OFFSET 0.000000 0.000000 0.000000
						CHANNELS 3 Zrotation Yrotation Xrotation
						JOINT LeftShoulder
						{
							OFFSET 4.392200 8.824978 0.174984
							CHANNELS 3 Zrotation Yrotation Xrotation
							JOINT LeftArm
							{
								OFFSET 8.771219 -2.981674 -0.026999
								CHANNELS 3 Zrotation Yrotation Xrotation
								JOINT LeftForeArm
								{
									OFFSET 8.512804 0.000000 -0.000000
									CHANNELS 3 Zrotation Yrotation Xrotation
									JOINT LeftHand
									{
										OFFSET 18.484802 0.000000 -0.000000
										CHANNELS 3 Zrotation Yrotation Xrotation
										End Site
										{
											OFFSET 0.000000 0.000000 0.000000
										}
									}
								}
							}
						}
					}
					JOINT RightShoulder_virtual
					{
						OFFSET 0.000000 0.000000 0.000000
						CHANNELS 3 Zrotation Yrotation Xrotation
						JOINT RightShoulder
						{
							OFFSET -4.392200 8.824993 0.141379
							CHANNELS 3 Zrotation Yrotation Xrotation
							JOINT RightArm
							{
								OFFSET -8.771282 -2.981682 -0.094208
								CHANNELS 3 Zrotation Yrotation Xrotation
								JOINT RightForeArm
								{
									OFFSET -8.494598 0.000000 0.000000
									CHANNELS 3 Zrotation Yrotation Xrotation
									JOINT RightHand
									{
										OFFSET -18.483803 0.000000 0.000001
										CHANNELS 3 Zrotation Yrotation Xrotation
										End Site
										{
											OFFSET 0.000000 0.000000 0.000000
										}
									}
								}
							}
						}
					}
				}
			}
		}
	}
}
MOTION
Frames: 5
Frame Time: 0.033333
-0.273285 17.046659 2.220634 -179.739242 -5.100209 179.286933 6.001060 -7.776055 10.103833 -14.372699 2.323380 -109.855636 15.101106 -5.417810 117.023544 -27.175923 -4.671611 -13.408878 0.000000 0.000000 0.000000 9.374256 -5.207500 11.810177 -6.998897 -16.188207 -59.406970 0.871268 0.212742 138.069446 -2.888410 16.317062 -26.518640 0.000000 0.000000 0.000000 6.452727 -2.190553 16.521283 -0.123928 0.818671 13.512353 -0.700716 -2.330058 2.182799 0.000433 0.211913 -0.059625 -0.809251 -1.048718 6.612263 -2.584549 0.210435 10.760736 0.000000 0.000000 0.000000 0.844681 -0.276180 2.399485 -4.256551 -4.422619 -1.868939 -41.375753 -17.074288 -14.347717 177.445159 -78.901860 -159.583518 0.000000 0.000000 0.000000 -3.816976 1.139417 0.749570 19.209338 17.888491 2.085633 19.536131 16.407424 -28.535347 -179.297001 70.360190 173.229976 0.000000 0.000000 0.000000 
-0.509306 17.090351 2.209188 -179.707058 -5.237696 178.961024 5.145030 -8.476727 11.060014 -14.065742 1.686438 -109.752008 15.405592 -5.672116 117.285536 -26.921641 -5.275644 -15.505359 0.000000 0.000000 0.000000 8.277039 -5.542769 12.549702 -6.410112 -17.159491 -58.875718 1.425735 -0.098099 136.834999 -2.886045 16.189425 -26.568657 0.000000 0.000000 0.000000 5.509024 -2.495482 17.568042 -0.669130 1.042910 13.410016 -0.423348 -2.298601 2.475441 -0.022526 0.164935 -0.099335 -0.542534 -0.992650 7.160614 -2.234223 0.260374 9.944367 0.000000 0.000000 0.000000 1.058958 -0.063879 2.833414 -4.494946 -5.961682 -1.486168 -41.198062 -15.343042 -11.629565 177.386884 -79.294630 -159.716775 0.000000 0.000000 0.000000 -3.443470 1.268725 1.383080 19.709027 18.256645 3.967256 19.499208 11.651692 -27.378644 -179.601300 71.619280 173.377959 0.000000 0.000000 0.000000 
-0.729371 17.192907 2.126441 -179.761686 -5.331986 179.128473 4.416664 -9.008166 11.835645 -13.928240 0.968659 -109.762800 15.822215 -6.023356 117.290085 -26.720328 -5.564559 -17.067625 0.000000 0.000000 0.000000 7.147140 -5.522295 13.051804 -6.175031 -17.714821 -58.139178 1.937874 -0.464414 135.248674 -2.267325 16.512209 -26.562787 0.000000 0.000000 0.000000 4.575472 -2.638464 18.111452 -1.378225 1.190986 13.030579 -0.177320 -2.291709 2.727920 0.021118 0.245678 -0.067672 -0.330681 -0.758152 7.823223 -2.126336 0.274903 8.946677 0.000000 0.000000 0.000000 1.200731 -0.030720 3.430440 -4.608619 -7.739038 -0.982611 -41.055885 -13.299438 -8.249252 177.382772 -79.434909 -159.903280 0.000000 0.000000 0.000000 -3.166273 1.434356 2.076932 20.407869 18.358169 6.328266 20.208885 6.721319 -25.638128 -179.250282 72.857437 174.214712 0.000000 0.000000 0.000000 
-0.925420 17.384075 1.964735 -179.940104 -5.347074 179.021457 3.669823 -9.373604 12.668166 -14.141887 0.343679 -109.308886 16.332415 -6.465030 117.280318 -26.301503 -5.496946 -18.377382 0.000000 0.000000 0.000000 6.026831 -5.468592 13.589092 -5.482107 -18.082642 -57.126879 2.323103 0.026351 133.413730 -0.698492 16.723790 -26.230088 0.000000 0.000000 0.000000 3.752225 -2.568780 18.693388 -2.187954 1.296483 12.737141 0.003897 -2.172741 2.956413 0.027737 0.099605 -0.085848 -0.143584 -0.762934 8.373506 -2.115357 0.358305 7.902710 0.000000 0.000000 0.000000 1.344844 0.138986 3.985969 -4.611394 -9.503637 -0.494696 -41.169245 -11.001443 -4.419642 177.346367 -79.700426 -160.072860 0.000000 0.000000 0.000000 -2.873730 1.518682 2.742442 21.264486 18.292712 8.545232 21.335402 2.227752 -23.335319 -178.567059 74.250358 175.405965 0.000000 0.000000 0.000000 
-1.104943 17.689112 1.751967 179.770183 -5.080639 179.016635 2.788914 -9.291216 13.385776 -14.146640 -0.325219 -108.492548 16.886678 -6.880711 116.929437 -25.754381 -5.224702 -19.318857 0.000000 0.000000 0.000000 5.013595 -5.485814 14.002456 -4.741925 -18.038979 -55.880841 1.935519 0.178632 131.112694 -0.067722 15.821756 -25.932157 0.000000 0.000000 0.000000 2.989291 -2.346398 19.037158 -3.071997 1.271497 12.410035 0.155268 -2.053516 3.170373 0.042237 0.102708 -0.096743 -0.080379 -0.864883 8.930223 -2.331399 0.350007 6.721690 0.000000 0.000000 0.000000 1.411910 0.275048 4.499169 -4.635711 -11.198151 0.061736 -41.462725 -8.519104 -0.757202 176.567999 -79.901704 -159.567959 0.000000 0.000000 0.000000 -2.657956 1.662243 3.411483 22.269639 18.096175 10.908682 22.625029 -1.525624 -20.976778 -177.322516 75.739121 177.142390 0.000000 0.000000 0.000000 
